<?xml version="1.0" standalone="no"?>
<!DOCTYPE svg PUBLIC "-//W3C//DTD SVG 20010904//EN"
 "http://www.w3.org/TR/2001/REC-SVG-20010904/DTD/svg10.dtd">
<svg version="1.0" xmlns="http://www.w3.org/2000/svg"
 width="500.000000pt" height="500.000000pt" viewBox="0 0 500.000000 500.000000"
 preserveAspectRatio="xMidYMid meet">

<g transform="translate(0.000000,500.000000) scale(0.100000,-0.100000)"
fill="#000000" stroke="none">
<path d="M0 2500 l0 -2500 2500 0 2500 0 0 2500 0 2500 -2500 0 -2500 0 0
-2500z m2256 876 c19 -19 34 -45 35 -57 2 -45 -3 -74 -16 -95 -13 -20 -9 -21
95 -47 l108 -26 267 50 c147 27 269 48 270 47 1 -2 6 -13 9 -25 8 -24 16 -21
-221 -85 -68 -18 -123 -35 -123 -39 0 -3 77 -30 170 -59 150 -48 170 -56 170
-75 0 -12 -2 -24 -5 -27 -3 -2 -119 21 -258 53 -138 32 -258 59 -266 59 -8 0
-65 -14 -127 -31 l-113 -31 21 -28 c25 -35 27 -99 4 -134 -39 -60 -141 -73
-191 -26 -28 26 -50 83 -41 106 4 9 2 12 -5 8 -16 -9 -49 -85 -49 -111 0 -13
-5 -23 -11 -23 -15 0 -3 63 21 111 11 20 39 54 64 76 40 35 61 44 191 78 183
48 187 58 35 97 -58 14 -119 26 -137 27 -63 2 -122 83 -107 147 4 16 20 44 37
62 27 28 37 32 85 32 48 0 58 -4 88 -34z m-630 -1019 c31 -36 31 -78 -1 -115
-25 -29 -25 -30 -5 -43 28 -20 40 -67 26 -109 -18 -57 -57 -70 -213 -70 l-133
0 0 40 c0 36 3 40 25 40 l25 0 0 105 c0 98 -1 105 -20 105 -17 0 -20 7 -20 41
l0 40 146 -3 c146 -3 146 -3 170 -31z m400 -109 c35 -124 44 -143 62 -146 18
-3 22 -10 22 -43 l0 -39 -110 0 -110 0 0 40 c0 29 4 40 15 40 8 0 15 9 15 20
0 17 -7 20 -45 20 -25 0 -45 -2 -45 -4 0 -2 -3 -11 -6 -20 -5 -12 0 -16 20
-16 24 0 26 -4 26 -40 l0 -40 -85 0 -85 0 0 40 c0 32 4 40 18 40 15 0 25 19
46 92 16 50 30 98 33 105 3 9 -3 13 -21 13 -24 0 -26 4 -26 40 l0 40 118 0
118 0 40 -142z m437 122 c32 -25 43 -72 27 -111 -7 -16 -15 -29 -19 -29 -3 0
-13 -5 -21 -10 -13 -8 -12 -11 4 -23 10 -7 21 -31 25 -53 5 -33 10 -39 34 -42
24 -3 27 -7 27 -43 l0 -39 -64 0 c-80 0 -92 11 -102 87 -7 61 -15 73 -51 73
-20 0 -23 -5 -23 -40 0 -33 3 -40 20 -40 17 0 20 -7 20 -40 l0 -40 -95 0 -95
0 0 40 c0 29 4 40 15 40 12 0 15 18 15 105 0 87 -3 105 -15 105 -11 0 -15 11
-15 40 l0 40 144 0 c128 0 146 -2 169 -20z m413 -13 c32 -38 32 -86 -1 -117
l-24 -23 24 -19 c31 -24 41 -77 23 -115 -24 -50 -67 -63 -215 -63 l-133 0 0
40 c0 36 3 40 25 40 l25 0 0 105 c0 98 -1 105 -20 105 -17 0 -20 7 -20 41 l0
40 146 -3 c146 -3 146 -3 170 -31z m404 -42 c0 -73 -1 -75 -25 -75 -19 0 -29
9 -42 35 -14 30 -22 35 -50 35 -30 0 -33 -3 -33 -30 0 -27 3 -30 30 -30 27 0
30 -3 30 -30 0 -27 -3 -30 -30 -30 -29 0 -30 -2 -30 -45 0 -45 0 -45 35 -45
31 0 35 3 46 40 11 34 16 40 41 40 l28 0 0 -80 0 -80 -155 0 -155 0 0 40 c0
33 3 40 20 40 19 0 20 7 20 105 0 98 -1 105 -20 105 -17 0 -20 7 -20 40 l0 40
155 0 155 0 0 -75z m363 55 c32 -25 43 -72 27 -111 -7 -16 -15 -29 -19 -29 -3
0 -13 -5 -21 -10 -13 -8 -12 -11 4 -23 10 -7 21 -31 25 -53 5 -33 10 -39 34
-42 24 -3 27 -7 27 -43 l0 -39 -64 0 c-80 0 -92 11 -102 87 -7 61 -15 73 -51
73 -20 0 -23 -5 -23 -40 0 -33 3 -40 20 -40 17 0 20 -7 20 -40 l0 -40 -95 0
-95 0 0 40 c0 29 4 40 15 40 12 0 15 18 15 105 0 87 -3 105 -15 105 -11 0 -15
11 -15 40 l0 40 144 0 c128 0 146 -2 169 -20z"/>
<path d="M2118 3384 c-30 -16 -58 -61 -58 -94 0 -54 61 -110 122 -110 12 0 60
-9 106 -20 116 -28 156 -24 52 6 -122 34 -116 31 -92 57 30 32 36 68 19 110
-25 59 -92 82 -149 51z m107 -39 c14 -13 25 -36 25 -50 0 -30 -49 -85 -75 -85
-24 0 -72 27 -79 45 -21 55 18 115 74 115 19 0 40 -9 55 -25z"/>
<path d="M2126 3334 c-35 -34 -8 -104 40 -104 33 0 64 29 64 59 0 52 -68 82
-104 45z"/>
<path d="M2730 3181 c-238 -45 -245 -47 -245 -70 0 -13 -6 -26 -12 -28 -19 -7
-29 27 -12 38 11 7 11 9 -3 9 -33 0 -45 -11 -40 -35 5 -26 9 -25 -202 -80
-108 -28 -120 -34 -143 -78 -40 -79 44 -177 126 -145 84 31 102 118 40 184
-19 20 -19 22 -2 26 463 125 773 213 773 220 0 12 -10 10 -280 -41z m-505
-236 c14 -13 25 -36 25 -50 0 -30 -49 -85 -75 -85 -21 0 -57 19 -72 39 -35 45
7 121 67 121 19 0 40 -9 55 -25z"/>
<path d="M2125 2934 c-25 -25 -16 -75 18 -94 24 -13 30 -13 55 0 53 30 33 110
-29 110 -15 0 -35 -7 -44 -16z"/>
<path d="M2570 3076 l-45 -12 45 -12 c34 -8 46 -8 52 1 5 8 13 6 28 -8 18 -16
23 -17 30 -5 7 12 13 10 34 -10 23 -21 26 -22 26 -5 0 17 2 17 23 -3 28 -27
49 -29 40 -4 -5 14 -2 14 18 -4 38 -34 49 -37 49 -17 0 15 -24 26 -120 56 -65
20 -123 37 -127 36 -4 -1 -28 -6 -53 -13z"/>
<path d="M2894 2992 c22 -26 36 -28 36 -7 0 8 -4 15 -9 15 -5 0 -18 3 -28 7
-17 6 -17 5 1 -15z"/>
<path d="M2955 2980 c3 -5 15 -15 27 -21 16 -8 19 -8 16 2 -2 6 -14 16 -27 20
-14 6 -20 5 -16 -1z"/>
<path d="M1470 2276 c0 -39 13 -45 44 -23 26 19 17 51 -17 55 -25 3 -27 1 -27
-32z"/>
<path d="M1470 2141 c0 -44 12 -51 44 -28 28 20 18 61 -16 65 -27 3 -28 1 -28
-37z"/>
<path d="M1858 2250 l-16 -50 30 0 c30 0 30 1 23 38 -12 63 -20 66 -37 12z"/>
<path d="M2300 2276 c0 -41 10 -50 50 -41 25 5 30 12 30 35 0 29 -15 40 -56
40 -21 0 -24 -5 -24 -34z"/>
<path d="M2720 2276 c0 -28 4 -36 18 -36 28 0 44 16 40 41 -2 18 -10 25 -30
27 -26 3 -28 1 -28 -32z"/>
<path d="M2720 2140 c0 -42 2 -43 37 -34 47 13 36 74 -13 74 -21 0 -24 -5 -24
-40z"/>
<path d="M3480 2276 c0 -41 10 -50 50 -41 25 5 30 12 30 35 0 29 -15 40 -56
40 -21 0 -24 -5 -24 -34z"/>
</g>
</svg>
